<svg width="81" height="80" viewBox="0 0 81 80" fill="none" xmlns="http://www.w3.org/2000/svg">
<g clip-path="url(#clip0_2135_195)">
<path d="M79.2369 20.8439C79.9347 20.8439 80.5 20.2786 80.5 19.5808V17.8653C80.5 14.6436 77.8791 12.0225 74.6573 12.0225H6.34267C3.1211 12.0225 0.5 14.6434 0.5 17.8653V62.1349C0.5 65.3568 3.1211 67.9779 6.34267 67.9779H74.6575C77.8792 67.9779 80.5002 65.3568 80.5 62.1349V23.679C80.5 22.9812 79.9345 22.4159 79.2369 22.4159C78.5392 22.4159 77.9737 22.9814 77.9737 23.679V62.1346C77.9737 63.9635 76.4859 65.4513 74.6573 65.4513H6.34267C4.51407 65.4513 3.02625 63.9635 3.02625 62.1346V17.8653C3.02625 16.0365 4.51407 14.5487 6.34267 14.5489H74.6572C76.4858 14.5489 77.9736 16.0367 77.9736 17.8654V19.5809C77.9737 20.2786 78.5391 20.8439 79.2369 20.8439Z" fill="black"/>
<path d="M61.1936 28.6913C59.4938 26.3305 58.6757 24.0497 58.5413 21.2963C58.5188 20.8364 58.2478 20.425 57.8341 20.223C57.4197 20.0206 56.9289 20.06 56.5527 20.325C54.6406 21.6708 52.7263 23.2056 50.7242 24.9969C47.6189 22.9141 44.0297 21.7753 40.2767 21.6988C40.1389 21.6958 40.0006 21.6945 39.8622 21.6945C29.3275 21.6945 20.7568 30.2653 20.7568 40.8C20.7568 51.3347 29.3276 59.9054 39.8622 59.9054C44.9953 59.9054 49.8128 57.8985 53.4216 54.2601C57.0527 50.6477 59.0524 45.8371 59.0524 40.7149C59.0524 37.7185 58.3419 34.7889 56.9902 32.1619C58.1321 31.5974 59.3127 31.0461 60.5682 30.6274C60.9496 30.5003 61.2475 30.1997 61.371 29.8174C61.4941 29.4352 61.4285 29.0172 61.1936 28.6913ZM50.8683 28.31C51.8261 29.1788 52.7075 30.1621 53.4285 31.1636C52.6985 31.5708 51.9864 31.9958 51.3074 32.4363C46.1503 35.7235 42.1694 40.2088 39.4489 45.7894C37.845 43.4238 35.9223 41.0638 32.5908 40.0861C32.7389 39.9521 32.8842 39.8144 33.0259 39.6725C33.7147 38.9993 34.2611 38.2883 34.6739 37.5258C34.732 37.5794 34.7911 37.6352 34.8517 37.6932C35.3912 38.1996 35.8791 38.7536 36.3019 39.3403C36.3055 39.3452 36.3091 39.3504 36.3126 39.3554C37.0264 40.3155 37.6053 41.3639 38.033 42.4711C38.2133 42.9386 38.6533 43.2554 39.1537 43.278C39.6539 43.2969 40.1211 43.0254 40.3433 42.5761C42.7527 37.7052 45.9905 33.2033 49.9646 29.1969C50.2642 28.8967 50.5663 28.6006 50.8683 28.31ZM51.6336 52.4752C48.4969 55.6376 44.3164 57.3791 39.862 57.3791C30.7203 57.3791 23.2829 49.9418 23.2829 40.8C23.2829 31.6583 30.7203 24.2206 39.862 24.2206C39.9834 24.2206 40.1044 24.2219 40.225 24.2242C43.2931 24.287 46.2372 25.1631 48.8239 26.7725C48.6064 26.9844 48.3894 27.1991 48.1733 27.416C44.6192 30.9985 41.6269 34.9603 39.2539 39.2211C38.9758 38.7518 38.6728 38.296 38.3459 37.8561C37.8298 37.141 37.2361 36.4668 36.5911 35.8613C35.6217 34.9311 34.8839 34.4628 34.8031 34.4125C34.4634 34.2013 34.0442 34.1635 33.6726 34.3103C33.3008 34.4571 33.0203 34.771 32.9164 35.1569C32.6447 36.1663 32.1183 37.0271 31.2494 37.8768C30.5936 38.5328 29.8204 39.1013 29.0017 39.703L28.7753 39.8694C28.342 40.1888 28.1586 40.7477 28.3186 41.2618C28.4786 41.776 28.9465 42.1321 29.4848 42.149C34.1441 42.296 35.9751 45.0874 38.0951 48.3197C38.2662 48.5805 38.4372 48.8413 38.6102 49.1008C38.8689 49.4897 39.3225 49.7032 39.7859 49.6582C40.2508 49.6122 40.6523 49.3135 40.8298 48.8815C43.3327 42.7938 47.3145 37.9777 52.673 34.5621C53.3385 34.1303 54.0322 33.7146 54.7452 33.3192C55.913 35.5893 56.5253 38.1229 56.5253 40.7157C56.526 45.1602 54.7906 49.3346 51.6336 52.4752ZM55.6914 29.9856C54.8674 28.7886 53.8561 27.628 52.7331 26.5897C53.9397 25.5222 55.1122 24.5531 56.2719 23.6653C56.6044 25.4802 57.2442 27.1466 58.2419 28.8039C57.3527 29.1727 56.511 29.5783 55.6914 29.9856Z" fill="black"/>
</g>
<defs>
<clipPath id="clip0_2135_195">
<rect width="80" height="80" fill="white" transform="translate(0.5)"/>
</clipPath>
</defs>
</svg>
