<svg width="80" height="80" viewBox="0 0 80 80" fill="none" xmlns="http://www.w3.org/2000/svg">
<path d="M76.7976 35.1333L42.2531 5.42606C40.9568 4.31273 39.0435 4.31273 37.7472 5.42606L3.20244 35.1333C1.75604 36.377 1.59124 38.5589 2.8347 40.0053C4.07977 41.4509 6.2619 41.6159 7.7067 40.3722L40 12.6005L72.2934 40.3725C72.9448 40.9333 73.748 41.2077 74.543 41.2077C75.5144 41.2077 76.4824 40.8005 77.1654 40.0053C78.4091 38.5591 78.244 36.377 76.7976 35.1333Z" fill="black"/>
<path d="M52.4553 43.5967H27.5444L23.6372 54.5391H56.3625L52.4553 43.5967Z" fill="black"/>
<path d="M57.9941 61.4531H49.3552C48.9578 61.4531 48.6362 61.7715 48.6362 62.1723V64.7494C48.6362 65.1467 48.9578 65.471 49.3552 65.471H57.9941C58.3898 65.471 58.7133 65.147 58.7133 64.7494V62.1723C58.7133 61.7715 58.3898 61.4531 57.9941 61.4531Z" fill="black"/>
<path d="M34.963 62.3831C34.5638 62.3831 34.2422 62.7023 34.2422 63.0999V63.8199C34.2422 64.2175 34.5638 64.5415 34.963 64.5415H45.0369C45.4361 64.5415 45.7577 64.2175 45.7577 63.8199V63.0999C45.7577 62.7023 45.4361 62.3831 45.0369 62.3831H34.963Z" fill="black"/>
<path d="M31.3644 64.7494V62.1723C31.3644 61.7715 31.0428 61.4531 30.6452 61.4531H22.0063C21.6106 61.4531 21.2871 61.7715 21.2871 62.1723V64.7494C21.2871 65.1467 21.6103 65.471 22.0063 65.471H30.6452C31.0428 65.4707 31.3644 65.1467 31.3644 64.7494Z" fill="black"/>
<path d="M41.1281 17.4454C40.4782 16.887 39.5217 16.887 38.8718 17.4454L12.8393 39.899C12.4582 40.2273 12.2422 40.7046 12.2422 41.2078V73.6809C12.2422 74.6358 13.0142 75.4086 13.9675 75.4086H17.8334V69.8619C17.1177 68.8675 16.6822 67.6585 16.6822 66.3406V60.583C16.6822 58.3737 17.8862 56.4571 19.6609 55.4033L24.7011 41.2886C24.9454 40.6009 25.5966 40.1425 26.3275 40.1425H53.6729C54.4035 40.1425 55.055 40.6009 55.299 41.2886L60.3393 55.4033C62.1139 56.4571 63.3179 58.3737 63.3179 60.583V66.3406C63.3179 67.6585 62.8825 68.8673 62.1667 69.8619V75.4086H66.0326C66.9859 75.4086 67.7579 74.6361 67.7579 73.6809V41.2076C67.7579 40.7046 67.5417 40.227 67.1609 39.8987L41.1281 17.4454Z" fill="black"/>
<path d="M53.8179 72.3853H26.1821V75.4085H53.8179V72.3853Z" fill="black"/>
</svg>
