<svg width="80" height="80" viewBox="0 0 80 80" fill="none" xmlns="http://www.w3.org/2000/svg">
<path d="M74.6119 21.2892C71.1371 17.8144 66.5173 15.9011 61.6036 15.9011C58.2324 15.9011 54.9998 16.802 52.1803 18.4894L51.4773 16.1723H11.7533L8.23058 27.7847H0V39.4451H4.69314L3.68302 42.775L3.61106 43.0112V59.4167H8.32886V64.0985H20.9887V59.4167H41.9774V64.0985H54.9705V59.4167H59.6196V52.5857C60.2743 52.6554 60.9359 52.694 61.6036 52.694C66.5173 52.694 71.1371 50.7807 74.6119 47.3059C78.0867 43.8311 80 39.2113 80 34.2976C80 29.3839 78.0867 24.764 74.6119 21.2892ZM17.7818 21.775H45.4489L46.1542 24.3066C44.2382 27.2567 43.2068 30.6972 43.2068 34.2979C43.2068 35.5112 43.3244 36.7066 43.5526 37.8713H13.2979L17.7818 21.775ZM22.6545 50.7724H10.9941V44.7756H22.6545V50.7724ZM52.3052 50.7724H40.978V44.7756H46.4823C47.1053 45.6705 47.8076 46.519 48.5949 47.3062C49.7206 48.432 50.9679 49.3908 52.3052 50.1767V50.7724ZM69.9001 42.5948C67.6843 44.8109 64.7375 46.0313 61.6036 46.0313C58.4692 46.0313 55.5225 44.8109 53.3067 42.5948C51.0905 40.379 49.8702 37.4322 49.8702 34.2982C49.8702 31.1639 51.0905 28.2172 53.3067 26.0014C55.5225 23.7852 58.4692 22.5649 61.6036 22.5649C64.7375 22.5649 67.6843 23.7852 69.9001 26.0014C72.1162 28.2172 73.3366 31.1639 73.3366 34.2982C73.3369 37.4319 72.1166 40.3786 69.9001 42.5948Z" fill="black"/>
<path d="M62.8275 27.3021L61.7158 26.3286L60.6167 27.3164C60.1243 27.7592 55.8066 31.7567 55.8066 35.7825C55.8066 39.0491 58.4642 41.7063 61.7301 41.7063C64.9967 41.7063 67.6539 39.0488 67.6539 35.7825C67.6543 31.6464 63.3216 27.7345 62.8275 27.3021Z" fill="black"/>
</svg>
