<svg width="80" height="80" viewBox="0 0 80 80" fill="none" xmlns="http://www.w3.org/2000/svg">
<g clip-path="url(#clip0_2063_1113)">
<path d="M67.1999 46.4L61.3332 34.6667C60.8295 33.8474 60.1232 33.1717 59.2825 32.7047C58.4418 32.2376 57.495 31.9949 56.5333 32H23.4666C22.5049 31.9949 21.558 32.2376 20.7173 32.7047C19.8766 33.1717 19.1703 33.8474 18.6666 34.6667L12.7999 46.4L6.18659 52.544C5.91717 52.7939 5.7023 53.0967 5.55546 53.4335C5.40861 53.7704 5.33296 54.1339 5.33325 54.5014V77.3334C5.33325 78.0406 5.6142 78.7189 6.1143 79.219C6.6144 79.7191 7.29268 80 7.99992 80H18.6666C19.7333 80 21.3333 78.9333 21.3333 77.8667V74.6667H58.6666V77.3334C58.6666 78.4 59.7332 80 60.7999 80H71.9999C72.7072 80 73.3854 79.7191 73.8855 79.219C74.3856 78.7189 74.6666 78.0406 74.6666 77.3334V54.5014C74.6669 54.1339 74.5912 53.7704 74.4444 53.4335C74.2975 53.0967 74.0827 52.7939 73.8132 52.544L67.1999 46.4ZM23.9999 37.3334H55.9999L61.3332 48H18.6666L23.9999 37.3334ZM26.6666 61.8667C26.6666 62.9334 25.0666 64 23.9999 64H12.7999C11.7333 64 10.6666 62.4 10.6666 61.3334V55.4667C11.1999 53.8667 12.2666 52.8 13.8666 53.3334L24.5333 55.4667C25.5999 55.4667 26.6666 57.0667 26.6666 58.1333V61.8667ZM69.3332 61.3334C69.3332 62.4 68.2666 64 67.1999 64H55.9999C54.9333 64 53.3332 62.9334 53.3332 61.8667V58.1333C53.3332 57.0667 54.3999 55.4667 55.4666 55.4667L66.1332 53.3334C67.7332 52.8 68.7999 53.8667 69.3332 55.4667V61.3334ZM74.6666 10.6667V16C74.6539 17.4263 74.0755 18.7892 73.0584 19.7893C72.0414 20.7894 70.6689 21.3447 69.2426 21.3333H28.5226C27.0936 23.2016 25.2043 24.6672 23.0394 25.5868C20.8745 26.5064 18.508 26.8486 16.1713 26.5799C13.8345 26.3112 11.6075 25.4408 9.70782 24.0538C7.80815 22.6667 6.30085 20.8106 5.33325 18.6667H18.6666V8.00002H5.33325C6.30085 5.85612 7.80815 3.99995 9.70782 2.61294C11.6075 1.22593 13.8345 0.355527 16.1713 0.0868131C18.508 -0.181901 20.8745 0.160266 23.0394 1.07987C25.2043 1.99947 27.0936 3.46505 28.5226 5.33335H69.2426C70.6689 5.32198 72.0414 5.87735 73.0584 6.8774C74.0755 7.87745 74.6539 9.24038 74.6666 10.6667Z" fill="black"/>
</g>
<defs>
<clipPath id="clip0_2063_1113">
<rect width="80" height="80" fill="white"/>
</clipPath>
</defs>
</svg>
