<svg width="81" height="80" viewBox="0 0 81 80" fill="none" xmlns="http://www.w3.org/2000/svg">
<g clip-path="url(#clip0_2135_185)">
<path d="M39.6674 58.9535C39.5785 58.9585 39.4961 58.9454 39.4126 58.93C39.1431 58.8821 38.8853 58.7546 38.6779 58.5473L15.7953 35.6646C15.5352 35.4044 15.3892 35.0516 15.3892 34.6838C15.3892 34.316 15.5352 33.9632 15.7955 33.703L21.1193 28.3797C21.6611 27.8381 22.5395 27.8381 23.0805 28.3797L39.6631 44.9619L72.0135 12.6112C72.5552 12.0697 73.4335 12.0697 73.9749 12.6112L79.2988 17.935C79.559 18.195 79.7051 18.548 79.7051 18.9157C79.7051 19.2835 79.5591 19.6363 79.299 19.8963L40.648 58.5472C40.3879 58.8072 40.0352 58.9535 39.6674 58.9535ZM18.7373 34.6838L39.6629 55.6096L76.3568 18.9158L72.9943 15.5534L40.6439 47.904C40.1021 48.4456 39.2239 48.4456 38.6825 47.904L22.0999 31.3216L18.7373 34.6838Z" fill="black"/>
<path d="M76.0918 29.4521C77.0949 32.7948 77.6366 36.3353 77.6366 40.0003C77.6366 60.2705 61.1454 76.7616 40.875 76.7616C20.6047 76.7616 4.11367 60.2705 4.11367 40.0003C4.11367 19.7299 20.6047 3.23862 40.875 3.23862C50.3499 3.23862 58.9988 6.84244 65.5241 12.7507L67.4868 10.7878C60.4575 4.37849 51.1147 0.464844 40.875 0.464844C19.0752 0.464844 1.33984 18.2004 1.33984 40.0003C1.33984 61.8002 19.0752 79.5354 40.875 79.5354C62.6749 79.5354 80.4104 61.8002 80.4104 40.0003C80.4104 35.5393 79.6667 31.2488 78.2986 27.2454L76.0918 29.4521Z" fill="black"/>
</g>
<defs>
<clipPath id="clip0_2135_185">
<rect width="80" height="80" fill="white" transform="translate(0.875)"/>
</clipPath>
</defs>
</svg>
