<svg width="80" height="80" viewBox="0 0 80 80" fill="none" xmlns="http://www.w3.org/2000/svg">
<path d="M63.9825 56.9788L68.75 56.025V43.975L63.9825 43.0212C63.4725 41.2638 62.7725 39.5725 61.8937 37.9737L64.59 33.93L56.0687 25.41L52.025 28.1063C50.4287 27.2275 48.7363 26.5275 46.9788 26.0175L46.025 21.25H33.975L33.0225 26.0175C31.2787 26.5237 29.6012 27.215 28.0175 28.0825L23.9237 25.4187L15.4187 33.9225L18.0825 38.0188C17.2225 39.5888 16.5362 41.25 16.0312 42.975L11.25 43.9862V56.0125L16.0312 57.025C16.535 58.75 17.2225 60.4112 18.0825 61.9812L15.4187 66.0775L23.9237 74.5813L28.0175 71.9175C29.5875 72.7762 31.2487 73.4637 32.9737 73.9688L33.9862 78.75H46.0125L47.0262 73.9688C48.7662 73.46 50.4412 72.7637 52.0238 71.8937L56.0675 74.59L64.5888 66.07L61.8925 62.0262C62.7725 60.4275 63.4713 58.735 63.9825 56.9788ZM61.3725 65.7513L55.7513 71.3737L52.115 68.95L51.4388 69.3512C49.6362 70.4187 47.6875 71.2287 45.6475 71.7575L44.8988 71.9513L43.9862 76.25H36.0125L35.1012 71.95L34.3525 71.7562C32.33 71.2325 30.3975 70.4325 28.6075 69.3787L27.94 68.9862L24.2575 71.3812L18.6188 65.7425L21.0138 62.0588L20.6213 61.3913C19.5675 59.6025 18.7687 57.67 18.245 55.6475L18.0525 54.8975L13.75 53.9862V46.0125L18.0512 45.1013L18.2438 44.3512C18.7675 42.3287 19.5675 40.3962 20.62 38.6075L21.0125 37.94L18.6175 34.2563L24.2563 28.6175L27.9387 31.0125L28.6063 30.62C30.41 29.5563 32.3612 28.7525 34.405 28.2288L35.1662 28.0338L36.025 23.75H43.9738L44.8313 28.035L45.5925 28.23C47.6512 28.7575 49.6188 29.5713 51.4375 30.65L52.1138 31.0512L55.75 28.6275L61.3713 34.25L58.9487 37.8862L59.3488 38.5625C60.4263 40.3825 61.2413 42.3488 61.7688 44.4075L61.9637 45.1687L66.25 46.025V53.975L61.9637 54.8325L61.7688 55.5938C61.2413 57.6525 60.4275 59.6188 59.3488 61.4388L58.9487 62.115L61.3725 65.7513Z" fill="black"/>
<path d="M41.25 26.25H38.75V28.75H41.25V26.25Z" fill="black"/>
<path d="M24.0905 32.3216L22.3228 34.0894L24.0905 35.8571L25.8583 34.0894L24.0905 32.3216Z" fill="black"/>
<path d="M18.75 48.75H16.25V51.25H18.75V48.75Z" fill="black"/>
<path d="M24.0905 64.1414L22.3228 65.9092L24.0905 67.6769L25.8583 65.9092L24.0905 64.1414Z" fill="black"/>
<path d="M41.25 71.25H38.75V73.75H41.25V71.25Z" fill="black"/>
<path d="M55.9089 64.1419L54.1411 65.9097L55.9089 67.6774L57.6766 65.9097L55.9089 64.1419Z" fill="black"/>
<path d="M63.75 48.75H61.25V51.25H63.75V48.75Z" fill="black"/>
<path d="M55.9094 32.3221L54.1416 34.0898L55.9094 35.8576L57.6771 34.0898L55.9094 32.3221Z" fill="black"/>
<path d="M40 33.75C31.04 33.75 23.75 41.04 23.75 50C23.75 58.96 31.04 66.25 40 66.25C48.96 66.25 56.25 58.96 56.25 50C56.25 41.04 48.96 33.75 40 33.75ZM40 63.75C32.4187 63.75 26.25 57.5812 26.25 50C26.25 42.4187 32.4187 36.25 40 36.25C47.5812 36.25 53.75 42.4187 53.75 50C53.75 57.5812 47.5812 63.75 40 63.75Z" fill="black"/>
<path d="M40 41.25C35.1762 41.25 31.25 45.175 31.25 50C31.25 54.825 35.1762 58.75 40 58.75C44.8237 58.75 48.75 54.825 48.75 50C48.75 45.175 44.8237 41.25 40 41.25ZM40 56.25C36.5538 56.25 33.75 53.4462 33.75 50C33.75 46.5538 36.5538 43.75 40 43.75C43.4462 43.75 46.25 46.5538 46.25 50C46.25 53.4462 43.4462 56.25 40 56.25Z" fill="black"/>
<path d="M71.25 66.25H68.75V68.75H71.25V66.25Z" fill="black"/>
<path d="M71.25 71.25H68.75V73.75H71.25V71.25Z" fill="black"/>
<path d="M73.75 68.75H71.25V71.25H73.75V68.75Z" fill="black"/>
<path d="M68.75 68.75H66.25V71.25H68.75V68.75Z" fill="black"/>
<path d="M6.25 68.75H3.75V71.25H6.25V68.75Z" fill="black"/>
<path d="M6.25 73.75H3.75V76.25H6.25V73.75Z" fill="black"/>
<path d="M8.75 71.25H6.25V73.75H8.75V71.25Z" fill="black"/>
<path d="M3.75 71.25H1.25V73.75H3.75V71.25Z" fill="black"/>
<path d="M76.25 26.25H73.75V28.75H76.25V26.25Z" fill="black"/>
<path d="M76.25 31.25H73.75V33.75H76.25V31.25Z" fill="black"/>
<path d="M78.75 28.75H76.25V31.25H78.75V28.75Z" fill="black"/>
<path d="M73.75 28.75H71.25V31.25H73.75V28.75Z" fill="black"/>
<path d="M8.75 28.75H6.25V31.25H8.75V28.75Z" fill="black"/>
<path d="M8.75 33.75H6.25V36.25H8.75V33.75Z" fill="black"/>
<path d="M11.25 31.25H8.75V33.75H11.25V31.25Z" fill="black"/>
<path d="M6.25 31.25H3.75V33.75H6.25V31.25Z" fill="black"/>
<path d="M12.5 23.75C16.2487 23.75 19.765 21.8512 21.8438 18.75H58.1575C60.2363 21.8512 63.7525 23.75 67.5013 23.75C70.0812 23.75 72.515 22.8888 74.5363 21.26L75.0013 20.885V16.25H69.5238L67.6488 12.5L69.5238 8.75H75V4.115L74.535 3.74C72.5137 2.11125 70.08 1.25 67.5 1.25C63.7513 1.25 60.235 3.14875 58.1562 6.25H21.8438C19.765 3.14875 16.2487 1.25 12.5 1.25C9.92 1.25 7.48625 2.11125 5.465 3.74L5 4.115V8.75H10.4775L12.3525 12.5L10.4775 16.25H5V20.885L5.465 21.26C7.48625 22.8888 9.92 23.75 12.5 23.75ZM7.5 18.75H12.0225L15.1475 12.5L12.0225 6.25H7.5V5.335C8.97375 4.29625 10.69 3.75 12.5 3.75C15.605 3.75 18.5062 5.4275 20.07 8.12625L20.4312 8.75H59.57L59.9313 8.12625C61.4938 5.4275 64.395 3.75 67.5 3.75C69.31 3.75 71.0263 4.29625 72.5 5.335V6.25H67.9775L64.8525 12.5L67.9775 18.75H72.5V19.665C71.0263 20.7038 69.31 21.25 67.5 21.25C64.395 21.25 61.4938 19.5725 59.93 16.8737L59.5687 16.25H20.4312L20.07 16.8737C18.5062 19.5725 15.605 21.25 12.5 21.25C10.69 21.25 8.97375 20.7038 7.5 19.665V18.75Z" fill="black"/>
</svg>
