<svg width="80" height="80" viewBox="0 0 80 80" fill="none" xmlns="http://www.w3.org/2000/svg">
<path d="M75.0264 40.8988C74.9157 40.6083 74.8609 40.3044 74.8609 39.9994C74.8609 39.6944 74.9157 39.3895 75.0264 39.1002L77.9474 31.4311C78.1996 30.7686 78.3217 30.0791 78.3217 29.4009C78.3226 27.5195 77.3873 25.7045 75.7384 24.6273L68.8656 20.14C68.3476 19.802 67.9704 19.2822 67.809 18.6836L65.6642 10.7614C64.987 8.26516 62.7254 6.54922 60.1618 6.54813C60.0657 6.54813 59.9696 6.55125 59.8724 6.55641L60.0171 6.54813L51.699 6.96469L51.5554 6.96782C50.9776 6.96782 50.4182 6.77141 49.9676 6.40969L43.5765 1.26219C42.5356 0.421721 41.2642 -0.00109163 40.0009 2.11656e-06C38.7367 -0.00109163 37.4653 0.421721 36.4223 1.26219L36.4234 1.26328L30.0321 6.41C29.5824 6.77172 29.0212 6.96813 28.4443 6.96813L28.3513 6.9661L20.1242 6.55672H20.1398C20.0271 6.55063 19.9268 6.54953 19.8379 6.54953C17.2743 6.54953 15.0137 8.26657 14.3367 10.7617L12.1918 18.6839C12.0306 19.2823 11.6532 19.8023 11.1353 20.1403L4.26244 24.6277C2.61369 25.7048 1.67713 27.5209 1.67822 29.4022C1.67822 30.0803 1.8001 30.7688 2.05135 31.4303L4.97463 39.1003C5.08416 39.3897 5.1401 39.6947 5.1401 39.9995C5.1401 40.3045 5.08525 40.6084 4.97463 40.8978L2.05229 48.5687C1.8001 49.2292 1.67822 49.9177 1.67822 50.5958C1.67713 52.477 2.6126 54.2942 4.26244 55.3723L11.1353 59.8597C11.6532 60.1977 12.0304 60.7156 12.1918 61.3141L14.3367 69.2363C15.0138 71.7325 17.2754 73.4484 19.8379 73.4484C19.9268 73.4484 20.0209 73.4473 20.1223 73.4422L28.3215 73.0328L28.337 73.0317L28.4485 73.0286C29.0223 73.0295 29.5815 73.2259 30.0321 73.5889L36.4234 78.7377C37.4653 79.577 38.7356 79.9998 40.0009 79.9998C41.264 79.9998 42.5356 79.5781 43.5774 78.7377L49.9687 73.5891C50.4193 73.2252 50.9776 73.0287 51.5523 73.0287L51.6753 73.0328L59.8362 73.44L59.891 73.4422C59.9757 73.4463 60.0657 73.4484 60.1618 73.4484C62.7243 73.4484 64.9871 71.7334 65.6642 69.2363L67.809 61.3141C67.9703 60.7156 68.3465 60.1977 68.8645 59.8597L75.7384 55.3723C77.3871 54.2933 78.3226 52.478 78.3217 50.5967C78.3217 49.9186 78.1996 49.2291 77.9474 48.5675L75.0264 40.8988ZM74.0009 52.7148L67.129 57.2009C65.9579 57.9648 65.1092 59.1339 64.7432 60.485L62.5984 68.4062C62.3006 69.5134 61.2949 70.2731 60.162 70.2731L60.0235 70.27L51.9824 69.8678L51.8428 69.8617C51.7496 69.8566 51.6537 69.8534 51.5523 69.8534C50.254 69.8534 48.9909 70.298 47.9757 71.1166L41.5845 76.2653C41.1204 76.6384 40.5643 76.8234 40.0009 76.8234C39.4365 76.8234 38.8803 76.6384 38.4163 76.2653L32.0251 71.1166C31.0101 70.298 29.7468 69.8534 28.4485 69.8534C28.3638 69.8544 28.2667 69.8555 28.1623 69.8617L19.9651 70.2711L19.8379 70.2733C18.706 70.2742 17.7003 69.5125 17.4026 68.4075L15.2578 60.4842C14.8918 59.1342 14.0431 57.9652 12.8709 57.2013L5.99901 52.7141C5.26822 52.2375 4.85463 51.4313 4.85369 50.5961C4.85369 50.2962 4.90744 49.9944 5.01901 49.7009L7.94119 42.03C8.19026 41.3767 8.31541 40.6884 8.31541 39.9998C8.31541 39.3114 8.19026 38.623 7.94119 37.9686L5.01901 30.3008C4.90729 30.0052 4.85369 29.7023 4.85369 29.4025C4.85463 28.5673 5.26713 27.7631 5.99791 27.2866L12.872 22.7994C14.0431 22.0334 14.8918 20.8642 15.2578 19.5144L17.4026 11.5913C17.7004 10.4863 18.7073 9.72438 19.8379 9.72547L19.9496 9.7275L19.9848 9.72953L28.0745 10.1336L28.1695 10.1378L28.4445 10.1439C29.7438 10.1439 31.007 9.70141 32.0242 8.88391L38.4154 3.73516L37.4199 2.49891L38.4165 3.73406C38.8806 3.36094 39.4367 3.17703 40.001 3.17485C40.5645 3.17594 41.1206 3.36094 41.5846 3.73516L47.977 8.88297C48.9942 9.70266 50.2584 10.1441 51.5557 10.1441C51.6518 10.1441 51.7396 10.142 51.8193 10.1389L60.1796 9.72141L60.0401 9.7286L60.162 9.72453C61.2938 9.72453 62.3007 10.4864 62.5984 11.5914L64.7432 19.5145C65.1092 20.8645 65.9579 22.0336 67.129 22.7986L74.002 27.2869C74.7328 27.7634 75.1463 28.5677 75.1463 29.4019C75.1463 29.7017 75.0935 30.0034 74.9798 30.3022L72.0596 37.97C71.8095 38.6244 71.6854 39.3128 71.6854 40.0002C71.6854 40.6886 71.8106 41.377 72.0596 42.0303L74.9809 49.6994C75.0935 49.9959 75.1463 50.2978 75.1463 50.5977C75.1463 51.4311 74.7327 52.2373 74.0009 52.7148Z" fill="black"/>
<path d="M25.8989 41.9573L21.0995 43.0301C21.0199 43.0487 20.9723 43.0178 20.9548 42.9392L20.3253 40.1254C20.3078 40.047 20.3376 39.9993 20.4173 39.9818L26.181 38.6918C26.2978 38.6661 26.3589 38.5689 26.3329 38.4511L25.8617 36.3464C25.8357 36.2286 25.7387 36.1675 25.6229 36.1934L17.0454 38.1118C16.9276 38.1387 16.8656 38.2359 16.8924 38.3537L19.797 51.3368C19.8238 51.4547 19.9199 51.5147 20.039 51.4878L22.5363 50.9295C22.6543 50.9026 22.7153 50.8076 22.6884 50.6898L21.5617 45.6537C21.5442 45.575 21.5751 45.5265 21.6546 45.5089L26.454 44.435C26.5718 44.409 26.6328 44.312 26.606 44.1942L26.1398 42.1092C26.1129 41.9914 26.0167 41.9304 25.8989 41.9573Z" fill="black"/>
<path d="M37.2563 41.8541C38.5855 40.8741 39.1861 39.3145 38.8036 37.6037C38.2578 35.1641 36.0655 33.8576 33.3302 34.4696L28.0005 35.6624C27.8827 35.6882 27.8206 35.7843 27.8475 35.9032L30.7522 48.8854C30.7791 49.0032 30.8753 49.0641 30.9942 49.0384L33.4916 48.4791C33.6094 48.4523 33.6705 48.3562 33.6436 48.2384L32.5736 43.4585C32.5571 43.3801 32.5871 43.3313 32.6667 43.3138L34.4561 42.9138L37.8538 47.2966C37.9427 47.4218 38.0161 47.4673 38.1928 47.4279L40.9869 46.8015C41.1244 46.7715 41.1555 46.6402 41.0717 46.5349L37.2563 41.8541ZM34.4766 40.3274L32.1166 40.8557C32.0371 40.8732 31.9885 40.8423 31.9708 40.7635L31.2803 37.6749C31.2628 37.5963 31.2927 37.5487 31.3724 37.5312L33.7322 37.003C34.8341 36.756 35.6878 37.246 35.9122 38.2507C36.141 39.273 35.5785 40.0802 34.4766 40.3274Z" fill="black"/>
<path d="M51.2831 41.8746L45.5193 43.1646C45.4409 43.1821 45.3932 43.1523 45.3746 43.0726L44.7545 40.2993C44.737 40.2207 44.767 40.1731 44.8454 40.1546L49.6459 39.0817C49.7637 39.0548 49.8257 38.9576 49.7989 38.8398L49.3328 36.7557C49.3059 36.6368 49.2087 36.5759 49.0907 36.6028L44.2914 37.6757C44.2128 37.6942 44.1651 37.6632 44.1465 37.5848L43.5532 34.9292C43.5356 34.8506 43.5656 34.802 43.6442 34.7856L49.4079 33.4954C49.5248 33.4685 49.5857 33.3724 49.56 33.2546L49.0887 31.1501C49.0629 31.0312 48.9657 30.9713 48.85 30.9971L40.2725 32.9157C40.1546 32.9426 40.0926 33.0387 40.1195 33.1565L43.0242 46.1395C43.0511 46.2574 43.1472 46.3184 43.2661 46.2915L51.8426 44.3731C51.9593 44.3473 52.0204 44.2501 51.9936 44.1323L51.5232 42.0278C51.4961 41.9098 51.4 41.8487 51.2831 41.8746Z" fill="black"/>
<path d="M62.393 39.3896L56.6302 40.6787C56.5516 40.6963 56.503 40.6652 56.4855 40.5868L55.8652 37.8133C55.8476 37.7349 55.8787 37.6862 55.9571 37.6698L60.7555 36.5948C60.8755 36.569 60.9355 36.4727 60.9096 36.3549L60.4433 34.269C60.4165 34.1512 60.3204 34.0902 60.2015 34.116L55.4021 35.191C55.3235 35.2076 55.276 35.1776 55.2585 35.099L54.6641 32.4434C54.6466 32.3648 54.6766 32.3173 54.7551 32.2987L60.5179 31.0096C60.6379 30.9827 60.6988 30.8866 60.6729 30.7688L60.2016 28.6641C60.1747 28.5452 60.0797 28.4843 59.9597 28.5112L51.3843 30.4296C51.2665 30.4563 51.2044 30.5526 51.2313 30.6704L54.136 43.6535C54.1629 43.7713 54.2591 43.8324 54.3769 43.8055L62.9522 41.8869C63.0722 41.8601 63.1332 41.764 63.1063 41.646L62.6349 39.5413C62.6091 39.4237 62.513 39.3627 62.393 39.3896Z" fill="black"/>
</svg>
