<svg width="81" height="80" viewBox="0 0 81 80" fill="none" xmlns="http://www.w3.org/2000/svg">
<g clip-path="url(#clip0_2063_1130)">
<path d="M43.0929 79.9498C42.1328 79.9498 41.1734 79.5843 40.4428 78.8543C40.3847 78.7963 40.3387 78.7275 40.3073 78.6517C40.2759 78.576 40.2597 78.4947 40.2597 78.4127C40.2597 78.3307 40.2759 78.2495 40.3073 78.1737C40.3387 78.0979 40.3847 78.0291 40.4428 77.9712C40.5008 77.9131 40.5696 77.8671 40.6454 77.8357C40.7212 77.8043 40.8024 77.7881 40.8844 77.7881C40.9664 77.7881 41.0477 77.8043 41.1235 77.8357C41.1992 77.8671 41.2681 77.9131 41.3261 77.9712C42.3018 78.9457 43.8878 78.9444 44.8612 77.9699C45.8342 76.9958 45.8336 75.4112 44.8587 74.4373C44.8007 74.3793 44.7546 74.3105 44.7232 74.2347C44.6918 74.1589 44.6756 74.0777 44.6757 73.9957C44.6756 73.9137 44.6918 73.8325 44.7232 73.7567C44.7546 73.6809 44.8007 73.6121 44.8587 73.5541C44.9167 73.4961 44.9855 73.4501 45.0613 73.4186C45.137 73.3872 45.2183 73.3711 45.3003 73.3711C45.3823 73.3711 45.4635 73.3872 45.5393 73.4186C45.6151 73.4501 45.6839 73.4961 45.7418 73.5541C47.2033 75.0143 47.2043 77.3912 45.7443 78.8532C45.0136 79.5837 44.0528 79.9498 43.0929 79.9498ZM49.2781 73.7685C48.2759 73.7685 47.3342 73.3782 46.6261 72.6694C46.568 72.6115 46.522 72.5426 46.4906 72.4669C46.4592 72.3911 46.443 72.3099 46.443 72.2279C46.443 72.1459 46.4592 72.0646 46.4906 71.9889C46.522 71.9131 46.568 71.8443 46.6261 71.7863C46.684 71.7283 46.7529 71.6822 46.8286 71.6508C46.9044 71.6194 46.9856 71.6032 47.0676 71.6032C47.1496 71.6032 47.2309 71.6194 47.3066 71.6508C47.3824 71.6822 47.4512 71.7283 47.5092 71.7863C48.4522 72.7299 50.0983 72.7324 51.0418 71.7888C52.0159 70.8149 52.0153 69.2294 51.0406 68.2549L46.1831 63.3949C46.1251 63.3369 46.0791 63.2681 46.0477 63.1923C46.0163 63.1166 46.0002 63.0354 46.0002 62.9533C46.0002 62.8713 46.0163 62.7901 46.0477 62.7144C46.0791 62.6386 46.1251 62.5698 46.1831 62.5118C46.2411 62.4538 46.3099 62.4078 46.3857 62.3764C46.4614 62.345 46.5426 62.3289 46.6247 62.3289C46.7067 62.3289 46.7879 62.345 46.8636 62.3764C46.9394 62.4078 47.0082 62.4538 47.0662 62.5118L51.9237 67.3718C53.3857 68.8332 53.3857 71.2113 51.925 72.6721C51.2189 73.3788 50.2786 73.7685 49.2781 73.7685ZM55.4586 67.5844C54.4984 67.5844 53.5392 67.2191 52.8084 66.4883L47.9509 61.6307C47.8929 61.5727 47.8469 61.5039 47.8155 61.4281C47.7842 61.3523 47.768 61.2711 47.768 61.1891C47.768 61.1071 47.7842 61.0259 47.8155 60.9502C47.8469 60.8744 47.8929 60.8055 47.9509 60.7476C48.0089 60.6896 48.0777 60.6436 48.1535 60.6122C48.2293 60.5808 48.3105 60.5647 48.3925 60.5647C48.4745 60.5647 48.5557 60.5808 48.6314 60.6122C48.7072 60.6436 48.776 60.6896 48.834 60.7476L53.6915 65.6052C54.6662 66.5797 56.2509 66.5797 57.2254 65.6052C58.2001 64.6305 58.2001 63.0446 57.2254 62.0699L52.3667 57.2137C52.1226 56.9697 52.1226 56.5744 52.3667 56.3305C52.6108 56.0866 53.0061 56.0865 53.2498 56.3305L58.1086 61.1868C59.5706 62.6483 59.5706 65.0271 58.1086 66.4885C57.3781 67.2191 56.4187 67.5844 55.4586 67.5844ZM61.642 61.401C60.6826 61.401 59.7234 61.0362 58.9925 60.3066L54.1331 55.4462C54.0751 55.3882 54.0291 55.3193 53.9977 55.2436C53.9663 55.1678 53.9502 55.0866 53.9502 55.0046C53.9502 54.9226 53.9663 54.8414 53.9977 54.7656C54.0291 54.6899 54.0751 54.621 54.1331 54.563C54.1911 54.505 54.2599 54.459 54.3357 54.4275C54.4114 54.3961 54.4926 54.38 54.5747 54.38C54.6567 54.38 54.7379 54.3961 54.8137 54.4275C54.8894 54.459 54.9583 54.505 55.0162 54.563L59.875 59.423C60.8497 60.3954 62.4343 60.3965 63.4078 59.423C64.3823 58.4483 64.3823 56.8626 63.4078 55.8879L47.0678 39.5487C47.0097 39.4907 46.9637 39.4219 46.9323 39.3461C46.9009 39.2703 46.8847 39.1891 46.8847 39.1071C46.8847 39.0251 46.9009 38.9439 46.9323 38.8681C46.9637 38.7923 47.0097 38.7235 47.0678 38.6655C47.1257 38.6075 47.1946 38.5615 47.2703 38.53C47.3461 38.4986 47.4273 38.4825 47.5093 38.4825C47.5914 38.4825 47.6726 38.4986 47.7483 38.53C47.8241 38.5615 47.8929 38.6075 47.9509 38.6655L64.2911 55.0044C65.7529 56.466 65.7529 58.8446 64.2911 60.306C63.5617 61.0362 62.6022 61.401 61.642 61.401ZM15.7506 52.0585C15.6353 52.0586 15.5223 52.0268 15.424 51.9666C15.3257 51.9064 15.246 51.8201 15.1937 51.7174C12.4887 46.4116 11.5987 41.1955 11.5622 40.9758C11.535 40.8126 11.5738 40.6452 11.67 40.5105C11.7662 40.3758 11.9119 40.2848 12.0751 40.2574C12.4186 40.2062 12.7368 40.4312 12.7942 40.7704C12.8028 40.8229 13.6926 46.023 16.3062 51.1504C16.3549 51.2455 16.3782 51.3515 16.3742 51.4583C16.3701 51.5651 16.3386 51.669 16.2829 51.7601C16.2271 51.8513 16.1489 51.9266 16.0557 51.9788C15.9625 52.0311 15.8574 52.0585 15.7506 52.0585ZM34.4531 29.819C34.3704 29.8191 34.2885 29.8026 34.2122 29.7707C29.8756 27.9549 26.9337 26.4258 26.9045 26.4105C26.7577 26.3337 26.6474 26.2018 26.5978 26.0438C26.5482 25.8858 26.5633 25.7145 26.6398 25.5676C26.6776 25.4947 26.7294 25.43 26.7923 25.3772C26.8552 25.3244 26.9279 25.2845 27.0063 25.2599C27.0846 25.2353 27.167 25.2265 27.2488 25.2338C27.3306 25.2412 27.4101 25.2647 27.4828 25.3029C27.5115 25.3182 30.4098 26.8248 34.694 28.6179C34.8269 28.6738 34.9364 28.7739 35.0039 28.9013C35.0714 29.0287 35.0928 29.1755 35.0645 29.3169C35.0361 29.4583 34.9597 29.5855 34.8483 29.677C34.7369 29.7685 34.5973 29.8186 34.4531 29.819ZM64.1393 52.8246C64.0246 52.8246 63.912 52.793 63.8141 52.7333C63.7161 52.6735 63.6365 52.5879 63.584 52.4859C63.5314 52.3839 63.5081 52.2693 63.5164 52.1549C63.5248 52.0404 63.5645 51.9305 63.6312 51.8371C67.3597 46.6094 68.0783 39.1255 68.085 39.0505C68.1167 38.7077 68.4112 38.4504 68.7639 38.4851C68.9288 38.5002 69.081 38.5802 69.187 38.7075C69.293 38.8348 69.3442 38.999 69.3292 39.164C69.2998 39.4835 68.5711 47.0627 64.6487 52.563C64.5908 52.6441 64.5143 52.7101 64.4257 52.7556C64.3371 52.8011 64.2389 52.8247 64.1393 52.8246ZM37.7931 78.1844H37.7925C36.7922 78.1844 35.8511 77.7941 35.1436 77.0868C33.6834 75.6271 33.6834 73.2494 35.1429 71.7869L37.7931 69.1368C39.2106 67.7207 41.6784 67.7218 43.0923 69.138C44.5531 70.5988 44.5531 72.9763 43.0923 74.4373L40.4439 77.0855C39.7351 77.7941 38.7939 78.1844 37.7931 78.1844ZM40.4433 69.2891C40.1149 69.2883 39.7897 69.3525 39.4863 69.4781C39.1829 69.6036 38.9074 69.788 38.6756 70.0205L36.0267 72.6694C35.0539 73.6448 35.0532 75.2301 36.0267 76.2035C36.258 76.4362 36.5332 76.6207 36.8363 76.7463C37.1394 76.8719 37.4644 76.9362 37.7925 76.9354H37.7931C38.4604 76.9354 39.0881 76.6751 39.5606 76.2024L42.209 73.5541C43.1829 72.5801 43.1829 70.9952 42.209 70.0213C41.9778 69.7884 41.7027 69.6038 41.3996 69.4781C41.0965 69.3524 40.7714 69.2882 40.4433 69.2891ZM31.6095 72.0016C30.6092 72.0016 29.6687 71.6119 28.9612 70.9044C27.5011 69.4426 27.5011 67.0649 28.9612 65.6029L32.494 62.0701C33.9103 60.6557 36.3806 60.6544 37.7931 62.0701C39.2545 63.5316 39.2545 65.9091 37.7931 67.3705L34.2604 70.9032C33.5522 71.6113 32.6104 72.0016 31.6095 72.0016ZM35.1447 62.2226C34.8164 62.2215 34.4911 62.2855 34.1878 62.4109C33.8844 62.5363 33.6089 62.7206 33.3772 62.9532L29.8443 66.486C28.8709 67.4605 28.8709 69.0466 29.8443 70.0212C30.0756 70.2537 30.3507 70.4381 30.6537 70.5637C30.9566 70.6892 31.2815 70.7534 31.6095 70.7526C31.9379 70.7533 32.2632 70.6889 32.5666 70.5632C32.87 70.4375 33.1455 70.2529 33.3772 70.0201L36.9098 66.4874C37.8839 65.5133 37.8839 63.9274 36.9098 62.9533C36.6786 62.7207 36.4036 62.5363 36.1005 62.4109C35.7975 62.2854 35.4726 62.2214 35.1447 62.2226ZM25.4272 65.8174C24.4256 65.8174 23.4851 65.4283 22.7787 64.7205C22.0706 64.0138 21.6803 63.0726 21.6797 62.0716C21.678 61.5791 21.7741 61.0912 21.9624 60.6361C22.1506 60.1809 22.4273 59.7677 22.7764 59.4202L25.4272 56.7707C26.8428 55.3538 29.3131 55.3549 30.7275 56.7719C31.4356 57.4783 31.8254 58.4188 31.8254 59.4202C31.8254 60.4205 31.4356 61.3618 30.7275 62.0698L28.0767 64.7205C27.3686 65.4283 26.4275 65.8174 25.4272 65.8174ZM28.0768 56.9223C27.7486 56.9213 27.4235 56.9856 27.1203 57.1112C26.8171 57.2368 26.5418 57.4214 26.3104 57.6541L23.6597 60.3037C23.427 60.5353 23.2427 60.8108 23.1173 61.1142C22.9918 61.4176 22.9279 61.7429 22.929 62.0712C22.9285 62.3994 22.993 62.7245 23.1189 63.0277C23.2447 63.3309 23.4293 63.6061 23.6622 63.8376C24.6039 64.7805 26.2495 64.7805 27.1937 63.8376L29.8445 61.1868C30.0772 60.9554 30.2618 60.6801 30.3874 60.3769C30.5131 60.0737 30.5774 59.7486 30.5765 59.4204C30.5765 58.7532 30.3167 58.1268 29.8451 57.6558C29.6136 57.4226 29.3381 57.2377 29.0345 57.1118C28.731 56.9858 28.4055 56.9214 28.0768 56.9223ZM19.2443 59.6352H19.2437C18.2428 59.6352 17.3023 59.246 16.5954 58.5383C15.1345 57.0765 15.1345 54.699 16.5954 53.238L18.3618 51.4716C19.7775 50.0554 22.244 50.0577 23.6597 51.4729C24.3678 52.1808 24.7576 53.1215 24.7582 54.1218C24.7589 55.1221 24.369 56.0627 23.6609 56.7707L21.8945 58.5371C21.1862 59.2454 20.2451 59.6352 19.2443 59.6352ZM21.0095 51.6237C20.6816 51.6229 20.3569 51.6871 20.054 51.8126C19.7511 51.9382 19.4761 52.1225 19.245 52.3551L17.4786 54.1215C16.5051 55.0955 16.5051 56.6807 17.4786 57.6554C17.7098 57.8879 17.9849 58.0722 18.2879 58.1976C18.5909 58.3231 18.9158 58.3871 19.2437 58.3862H19.2443C19.9117 58.3862 20.5392 58.1263 21.0114 57.6541L22.7778 55.8877C23.2498 55.4157 23.5092 54.7887 23.5092 54.1219C23.5092 53.4552 23.2487 52.8283 22.7767 52.3562C22.3037 51.8841 21.6767 51.6237 21.0095 51.6237ZM32.4951 42.8521C31.535 42.8521 30.575 42.4862 29.8443 41.7554C28.3836 40.2946 28.3836 37.9183 29.8443 36.4576L35.5851 30.7144C40.9697 25.3299 53.0915 23.5458 53.6043 23.4721C53.9423 23.4177 54.262 23.6599 54.3114 24.0021C54.3348 24.1661 54.2921 24.3328 54.1927 24.4653C54.0933 24.5979 53.9453 24.6855 53.7812 24.709C53.6592 24.726 41.5575 26.5082 36.4681 31.5976L30.7275 37.3407C29.754 38.3141 29.754 39.8988 30.7275 40.8723C31.7015 41.8469 33.2861 41.8469 34.2603 40.8735C34.5848 40.549 42.2547 32.9724 46.1845 36.898C46.2425 36.956 46.2885 37.0249 46.3199 37.1006C46.3513 37.1764 46.3674 37.2576 46.3674 37.3396C46.3674 37.4216 46.3513 37.5028 46.3199 37.5786C46.2885 37.6543 46.2425 37.7232 46.1845 37.7812C46.1265 37.8392 46.0577 37.8852 45.9819 37.9166C45.9062 37.9481 45.825 37.9642 45.7429 37.9642C45.6609 37.9642 45.5797 37.9481 45.5039 37.9166C45.4282 37.8852 45.3593 37.8392 45.3014 37.7812C42.7676 35.2512 37.1098 39.7915 35.1434 41.7566C34.4134 42.4868 33.454 42.8521 32.4951 42.8521ZM71.3579 38.8485C71.2759 38.8486 71.1947 38.8325 71.1189 38.8011C71.0431 38.7697 70.9743 38.7236 70.9164 38.6655L54.1345 21.8826C54.0765 21.8246 54.0305 21.7557 53.9991 21.68C53.9677 21.6042 53.9516 21.523 53.9516 21.441C53.9516 21.359 53.9677 21.2778 53.9991 21.202C54.0305 21.1263 54.0765 21.0574 54.1345 20.9994C54.1925 20.9414 54.2613 20.8954 54.3371 20.864C54.4128 20.8325 54.494 20.8164 54.5761 20.8164C54.6581 20.8164 54.7393 20.8325 54.8151 20.864C54.8908 20.8954 54.9597 20.9414 55.0176 20.9994L71.7995 37.7824C71.8869 37.8697 71.9464 37.981 71.9706 38.1022C71.9947 38.2233 71.9823 38.3489 71.9351 38.4631C71.8878 38.5772 71.8077 38.6747 71.705 38.7434C71.6023 38.812 71.4815 38.8486 71.3579 38.8485ZM77.5414 36.1977C77.4593 36.1979 77.3781 36.1818 77.3023 36.1504C77.2265 36.119 77.1577 36.0729 77.0998 36.0148L56.784 15.7002C56.726 15.6422 56.68 15.5734 56.6486 15.4976C56.6173 15.4219 56.6011 15.3407 56.6011 15.2587C56.6011 15.1767 56.6173 15.0954 56.6486 15.0197C56.68 14.9439 56.726 14.8751 56.784 14.8171C56.842 14.7591 56.9108 14.713 56.9866 14.6816C57.0624 14.6502 57.1436 14.634 57.2256 14.634C57.3076 14.634 57.3888 14.6502 57.4646 14.6816C57.5404 14.713 57.6092 14.7591 57.6672 14.8171L77.9829 35.1316C78.0703 35.2189 78.1299 35.3302 78.154 35.4514C78.1781 35.5725 78.1658 35.6981 78.1185 35.8123C78.0712 35.9264 77.9912 36.024 77.8884 36.0926C77.7857 36.1612 77.6649 36.1978 77.5414 36.1977Z" fill="black"/>
<path d="M54.576 22.0655C54.4525 22.0655 54.3317 22.0289 54.2289 21.9603C54.1262 21.8917 54.0461 21.7942 53.9989 21.68C53.9516 21.5659 53.9392 21.4403 53.9634 21.3191C53.9875 21.198 54.047 21.0867 54.1344 20.9994L56.784 18.3497C56.842 18.2917 56.9108 18.2457 56.9866 18.2143C57.0623 18.1829 57.1435 18.1668 57.2255 18.1668C57.3075 18.1668 57.3887 18.1829 57.4645 18.2143C57.5403 18.2457 57.6091 18.2917 57.6671 18.3497C57.7251 18.4077 57.7711 18.4765 57.8025 18.5523C57.8338 18.628 57.85 18.7092 57.85 18.7913C57.85 18.8733 57.8338 18.9545 57.8025 19.0302C57.7711 19.106 57.7251 19.1748 57.6671 19.2328L55.0176 21.8825C54.9597 21.9406 54.8908 21.9867 54.8151 22.0181C54.7393 22.0495 54.658 22.0656 54.576 22.0655ZM71.3579 38.8484C71.2758 38.8486 71.1946 38.8325 71.1188 38.8011C71.043 38.7697 70.9742 38.7236 70.9163 38.6655C70.8583 38.6075 70.8122 38.5387 70.7808 38.4629C70.7494 38.3871 70.7332 38.3059 70.7332 38.2239C70.7332 38.1419 70.7494 38.0607 70.7808 37.9849C70.8122 37.9091 70.8583 37.8403 70.9163 37.7823L73.5658 35.1327C73.6238 35.0747 73.6927 35.0287 73.7685 34.9973C73.8442 34.9659 73.9254 34.9498 74.0075 34.9498C74.0895 34.9498 74.1707 34.9659 74.2464 34.9973C74.3222 35.0287 74.3911 35.0747 74.449 35.1327C74.507 35.1907 74.553 35.2596 74.5844 35.3354C74.6158 35.4111 74.6319 35.4923 74.6319 35.5744C74.6319 35.6564 74.6158 35.7376 74.5844 35.8133C74.553 35.8891 74.507 35.958 74.449 36.0159L71.7994 38.6655C71.7415 38.7236 71.6727 38.7696 71.5969 38.801C71.5211 38.8324 71.4399 38.8485 71.3579 38.8484ZM57.2255 15.8831C57.102 15.8832 56.9812 15.8466 56.8785 15.778C56.7757 15.7094 56.6957 15.6118 56.6484 15.4977C56.6011 15.3835 56.5888 15.2579 56.6129 15.1368C56.637 15.0156 56.6966 14.9043 56.784 14.817L71.3677 0.233438C71.4257 0.175451 71.4945 0.129454 71.5703 0.0980716C71.6461 0.0666893 71.7273 0.0505371 71.8093 0.0505371C71.8913 0.0505371 71.9725 0.0666893 72.0482 0.0980716C72.124 0.129454 72.1929 0.175451 72.2508 0.233438C72.3088 0.291425 72.3548 0.360265 72.3862 0.436029C72.4176 0.511792 72.4337 0.592995 72.4337 0.675001C72.4337 0.757007 72.4176 0.838209 72.3862 0.913973C72.3548 0.989736 72.3088 1.05858 72.2508 1.11656L57.6671 15.7002C57.6092 15.7583 57.5404 15.8044 57.4646 15.8358C57.3888 15.8672 57.3076 15.8833 57.2255 15.8831ZM77.5413 36.1977C77.4593 36.1978 77.378 36.1817 77.3022 36.1503C77.2265 36.1189 77.1576 36.0728 77.0997 36.0147C77.0417 35.9567 76.9957 35.8879 76.9643 35.8121C76.9328 35.7364 76.9167 35.6551 76.9167 35.5731C76.9167 35.4911 76.9328 35.4099 76.9643 35.3341C76.9957 35.2584 77.0417 35.1895 77.0997 35.1316L79.4066 32.8272C79.4646 32.7692 79.5335 32.7232 79.6092 32.6918C79.685 32.6604 79.7662 32.6443 79.8482 32.6443C79.9302 32.6443 80.0114 32.6604 80.0872 32.6918C80.1629 32.7232 80.2318 32.7692 80.2897 32.8272C80.3477 32.8852 80.3937 32.954 80.4251 33.0298C80.4565 33.1055 80.4726 33.1867 80.4726 33.2688C80.4726 33.3508 80.4565 33.432 80.4251 33.5077C80.3937 33.5835 80.3477 33.6523 80.2897 33.7103L77.9829 36.0147C77.925 36.0728 77.8561 36.1189 77.7804 36.1503C77.7046 36.1817 77.6233 36.1978 77.5413 36.1977ZM9.52865 40.6123C9.4051 40.6124 9.2843 40.5759 9.18154 40.5073C9.07878 40.4387 8.99869 40.3411 8.95139 40.227C8.9041 40.1128 8.89173 39.9872 8.91586 39.866C8.93999 39.7449 8.99953 39.6336 9.08694 39.5462L25.8699 22.7656C26.1138 22.5216 26.5091 22.5216 26.753 22.7656C26.9969 23.0097 26.9971 23.4048 26.753 23.6488L9.97022 40.4294C9.91227 40.4874 9.84344 40.5335 9.76767 40.5649C9.6919 40.5963 9.61067 40.6124 9.52865 40.6123ZM3.34631 37.9641C3.26428 37.9642 3.18304 37.9481 3.10726 37.9167C3.03148 37.8853 2.96266 37.8392 2.90475 37.7811C2.84671 37.7231 2.80067 37.6543 2.76926 37.5785C2.73785 37.5028 2.72168 37.4216 2.72168 37.3395C2.72168 37.2575 2.73785 37.1763 2.76926 37.1005C2.80067 37.0248 2.84671 36.9559 2.90475 36.898L23.2205 16.5834C23.2785 16.5254 23.3473 16.4794 23.4231 16.448C23.4989 16.4165 23.5801 16.4004 23.6621 16.4004C23.7441 16.4004 23.8253 16.4165 23.9011 16.448C23.9769 16.4794 24.0457 16.5254 24.1037 16.5834C24.1617 16.6414 24.2077 16.7102 24.2391 16.786C24.2706 16.8618 24.2867 16.943 24.2867 17.025C24.2867 17.107 24.2706 17.1882 24.2391 17.264C24.2077 17.3398 24.1617 17.4086 24.1037 17.4666L3.78787 37.7811C3.72996 37.8392 3.66113 37.8852 3.58535 37.9166C3.50957 37.948 3.42834 37.9642 3.34631 37.9641Z" fill="black"/>
<path d="M9.52871 40.6122C9.44667 40.6123 9.36542 40.5962 9.28962 40.5648C9.21382 40.5334 9.14496 40.4873 9.08699 40.4293L6.43746 37.781C6.1934 37.5369 6.1934 37.1418 6.43746 36.8979C6.68152 36.6539 7.07668 36.6538 7.32059 36.8979L9.97027 39.5461C10.0577 39.6334 10.1172 39.7447 10.1413 39.8659C10.1655 39.987 10.1531 40.1126 10.1058 40.2268C10.0586 40.3409 9.9785 40.4385 9.87577 40.5071C9.77303 40.5757 9.65225 40.6123 9.52871 40.6122ZM26.3117 23.8316C26.2297 23.8317 26.1484 23.8156 26.0726 23.7842C25.9969 23.7528 25.928 23.7067 25.8701 23.6486L23.2204 20.9991C23.1624 20.9411 23.1164 20.8723 23.0849 20.7965C23.0535 20.7208 23.0374 20.6396 23.0374 20.5575C23.0374 20.4755 23.0535 20.3943 23.0849 20.3185C23.1164 20.2428 23.1624 20.1739 23.2204 20.116C23.2784 20.0579 23.3472 20.0119 23.423 19.9805C23.4988 19.9491 23.58 19.9329 23.662 19.9329C23.744 19.9329 23.8252 19.9491 23.901 19.9805C23.9768 20.0119 24.0456 20.0579 24.1036 20.116L26.7532 22.7655C26.8113 22.8235 26.8573 22.8923 26.8887 22.9681C26.9201 23.0438 26.9363 23.125 26.9363 23.2071C26.9363 23.2891 26.9201 23.3703 26.8887 23.4461C26.8573 23.5218 26.8113 23.5907 26.7532 23.6486C26.6953 23.7067 26.6265 23.7528 26.5507 23.7842C26.4749 23.8156 26.3937 23.8317 26.3117 23.8316ZM3.34637 37.9639C3.26434 37.9641 3.1831 37.9479 3.10732 37.9165C3.03154 37.8851 2.96272 37.8391 2.90481 37.781L0.70168 35.5779C0.585763 35.4605 0.520986 35.302 0.521489 35.1371C0.521993 34.9721 0.587737 34.8141 0.704368 34.6974C0.821 34.5808 0.979045 34.515 1.144 34.5145C1.30896 34.5139 1.46742 34.5787 1.58481 34.6946L3.78793 36.8977C3.84596 36.9557 3.892 37.0245 3.92342 37.1003C3.95483 37.176 3.971 37.2572 3.971 37.3393C3.971 37.4213 3.95483 37.5025 3.92342 37.5783C3.892 37.654 3.84596 37.7229 3.78793 37.7808C3.73004 37.839 3.66122 37.8851 3.58544 37.9165C3.50966 37.9479 3.42841 37.964 3.34637 37.9639ZM23.662 17.6494C23.58 17.6495 23.4987 17.6333 23.423 17.6019C23.3472 17.5705 23.2784 17.5245 23.2204 17.4664L6.87543 1.12129C6.63137 0.877227 6.63137 0.48207 6.87543 0.238164C7.11949 -0.00574218 7.51465 -0.00589843 7.75856 0.238164L24.1036 16.5832C24.1616 16.6411 24.2076 16.71 24.239 16.7857C24.2705 16.8615 24.2866 16.9427 24.2866 17.0247C24.2866 17.1067 24.2705 17.188 24.239 17.2637C24.2076 17.3395 24.1616 17.4083 24.1036 17.4663C24.0457 17.5244 23.9768 17.5705 23.9011 17.6019C23.8253 17.6334 23.744 17.6495 23.662 17.6494ZM2.34481 32.483C2.09845 32.4837 1.85441 32.4356 1.62678 32.3414C1.39916 32.2471 1.19248 32.1087 1.01871 31.9341C0.289805 31.2016 0.291055 30.0135 1.01996 29.2846C1.72512 28.5771 2.96387 28.5764 3.67012 29.2852C3.84446 29.4586 3.98264 29.6649 4.07665 29.8921C4.17066 30.1193 4.21863 30.3629 4.21777 30.6088C4.2187 30.855 4.17071 31.0989 4.07659 31.3264C3.98247 31.554 3.84409 31.7605 3.66949 31.9341C3.49606 32.1088 3.28965 32.2473 3.06224 32.3415C2.83483 32.4357 2.59096 32.4838 2.34481 32.483ZM2.34481 29.9847C2.17762 29.9847 2.0209 30.0494 1.90387 30.1671C1.78669 30.2845 1.72083 30.4436 1.72071 30.6094C1.7206 30.7753 1.78623 30.9345 1.90324 31.0521C2.13621 31.2844 2.55043 31.2863 2.78574 31.0514C2.84399 30.9935 2.89015 30.9246 2.92156 30.8487C2.95297 30.7728 2.969 30.6914 2.96871 30.6093C2.96871 30.4421 2.90402 30.2854 2.78637 30.1677C2.7286 30.1094 2.6598 30.0632 2.58399 30.0318C2.50818 30.0004 2.42687 29.9844 2.34481 29.9847Z" fill="black"/>
</g>
<defs>
<clipPath id="clip0_2063_1130">
<rect width="80" height="80" fill="white" transform="translate(0.472656)"/>
</clipPath>
</defs>
</svg>
