<svg width="80" height="80" viewBox="0 0 80 80" fill="none" xmlns="http://www.w3.org/2000/svg">
<path d="M66.6667 3.3335C72.1897 3.3335 76.6667 7.81066 76.6667 13.3335V26.6668C76.6667 28.5078 75.1743 30.0002 73.3333 30.0002C71.4923 30.0002 70 28.5078 70 26.6668V13.3335C70 11.4926 68.5077 10.0002 66.6667 10.0002H53.3333C51.4923 10.0002 50 8.50776 50 6.66683C50 4.8259 51.4923 3.3335 53.3333 3.3335H66.6667Z" fill="black"/>
<path d="M73.3333 50C75.1743 50 76.6667 51.4923 76.6667 53.3333V66.6667C76.6667 72.1897 72.1897 76.6667 66.6667 76.6667H53.3333C51.4923 76.6667 50 75.1743 50 73.3333C50 71.4923 51.4923 70 53.3333 70H66.6667C68.5077 70 70 68.5077 70 66.6667V53.3333C70 51.4923 71.4923 50 73.3333 50Z" fill="black"/>
<path d="M13.3335 70H26.6668C28.5078 70 30.0002 71.4923 30.0002 73.3333C30.0002 75.1743 28.5078 76.6667 26.6668 76.6667H13.3335C7.81066 76.6667 3.3335 72.1897 3.3335 66.6667V53.3333C3.3335 51.4923 4.8259 50 6.66683 50C8.50776 50 10.0002 51.4923 10.0002 53.3333V66.6667C10.0002 68.5077 11.4926 70 13.3335 70Z" fill="black"/>
<path d="M6.66683 30.0002C4.8259 30.0002 3.3335 28.5078 3.3335 26.6668V13.3335C3.3335 7.81066 7.81066 3.3335 13.3335 3.3335H26.6668C28.5078 3.3335 30.0002 4.8259 30.0002 6.66683C30.0002 8.50776 28.5078 10.0002 26.6668 10.0002H13.3335C11.4926 10.0002 10.0002 11.4926 10.0002 13.3335V26.6668C10.0002 28.5078 8.50776 30.0002 6.66683 30.0002Z" fill="black"/>
<path fill-rule="evenodd" clip-rule="evenodd" d="M39.9998 53.3332C47.3635 53.3332 53.3332 47.3635 53.3332 39.9998C53.3332 32.636 47.3635 26.6665 39.9998 26.6665C32.636 26.6665 26.6665 32.636 26.6665 39.9998C26.6665 47.3635 32.636 53.3332 39.9998 53.3332ZM39.9998 46.7122C36.2928 46.7122 33.2876 43.7068 33.2876 39.9998C33.2876 36.2928 36.2928 33.2876 39.9998 33.2876C43.7068 33.2876 46.7122 36.2928 46.7122 39.9998C46.7122 43.7068 43.7068 46.7122 39.9998 46.7122Z" fill="black"/>
</svg>
