<svg width="81" height="80" viewBox="0 0 81 80" fill="none" xmlns="http://www.w3.org/2000/svg">
<g clip-path="url(#clip0_2135_176)">
<path d="M35.7556 36.4838L24.7388 25.4673L27.9257 22.2806L38.9423 33.297L40.756 31.4836L29.1879 19.9154L32.5179 16.5856C32.5444 16.5591 32.5689 16.5315 32.5926 16.5029C32.619 16.4807 32.6449 16.4582 32.6698 16.4335L38.6925 10.4107C39.187 9.91651 39.1944 9.11713 38.7088 8.61384L38.6404 8.54246C38.5834 8.48251 38.5261 8.42278 38.4674 8.36389C35.4566 5.35318 31.5482 3.55566 28.0122 3.55566C25.6276 3.55566 23.5761 4.3466 22.0797 5.84313C22.0471 5.87557 22.017 5.90993 21.9884 5.94535C21.9687 5.9626 21.9489 5.97935 21.9302 5.99793L8.26989 19.6585C7.76913 20.1594 7.76913 20.9714 8.26989 21.4723L10.2878 23.49L8.62145 25.1564L6.60353 23.1382C6.36291 22.8978 6.03678 22.7626 5.69665 22.7626C5.35656 22.7626 5.03042 22.8978 4.7898 23.1382L0.606557 27.3219C0.105757 27.8228 0.105757 28.6347 0.606557 29.1353L9.38056 37.9094C9.62118 38.1498 9.94731 38.2851 10.2874 38.2851C10.6275 38.2851 10.9538 38.1498 11.1943 37.9094L15.3772 33.7258C15.878 33.2252 15.878 32.4133 15.3772 31.9124L13.3596 29.8946L15.026 28.2283L17.0435 30.246C17.294 30.4965 17.6222 30.6214 17.9504 30.6214C18.2786 30.6214 18.6069 30.4962 18.8571 30.246L22.3738 26.7294L33.942 38.2976L35.7556 36.4838ZM28.0122 6.12051C30.6261 6.12051 33.538 7.37771 35.9559 9.52038L31.763 13.713L24.9226 6.87255C25.7895 6.37758 26.8366 6.12051 28.0122 6.12051ZM10.2874 35.1888L3.327 28.2286L5.69665 25.8587L12.6567 32.819L10.2874 35.1888ZM11.6386 27.9885L10.5275 26.8774L12.1012 25.3038L13.2122 26.4148L11.6386 27.9885ZM17.9504 27.5255L10.9904 20.5652L22.8372 8.71833L29.7976 15.6789L17.9504 27.5255Z" fill="#333333"/>
<path d="M78.4343 69.1615L52.0478 42.7754L50.2344 44.5888L75.7142 70.0686L72.5275 73.2557L47.0474 47.7755L45.2339 49.5893L71.6207 75.9762C71.8612 76.2165 72.1875 76.3518 72.5274 76.3518C72.8678 76.3518 73.1941 76.2165 73.4345 75.9762L78.4346 70.9753C78.9353 70.4744 78.9353 69.6625 78.4343 69.1615Z" fill="#333333"/>
<path d="M79.1653 11.745C79.02 11.3284 78.6704 11.0161 78.2403 10.9177C77.8106 10.8196 77.3601 10.9492 77.0481 11.2612L71.8666 16.4424L67.0085 11.5839L72.19 6.40302C72.502 6.09098 72.6319 5.64054 72.5335 5.21045C72.4351 4.78027 72.1227 4.43085 71.7062 4.28538C70.4142 3.83431 69.0627 3.60547 67.6894 3.60547C64.4422 3.60547 61.3897 4.86987 59.094 7.16565C56.7975 9.46165 55.533 12.5143 55.533 15.7615C55.533 17.3323 55.8318 18.8569 56.397 20.2732L23.6752 52.9948C22.2591 52.4294 20.7348 52.131 19.1642 52.131C15.9172 52.131 12.8645 53.3956 10.5683 55.6917C7.28825 58.9717 6.15754 63.9225 7.68794 68.3039C7.83336 68.7204 8.18278 69.0328 8.61291 69.1312C9.04282 69.2292 9.49331 69.1001 9.80549 68.7881L14.9869 63.6065L19.8453 68.4642L14.6638 73.6458C14.3517 73.9578 14.2221 74.4083 14.3202 74.8384C14.4186 75.2685 14.731 75.6177 15.1475 75.7634C16.4392 76.2146 17.7905 76.4432 19.164 76.4436C19.1644 76.4436 19.1644 76.4436 19.1647 76.4436C22.411 76.4436 25.4638 75.1787 27.7598 72.8826C31.2958 69.3463 32.1921 64.1558 30.4515 59.7794L63.1781 27.0535C64.5943 27.6192 66.1186 27.9176 67.6894 27.9176C67.6898 27.9176 67.6894 27.9176 67.6898 27.9176C70.9363 27.9176 73.9892 26.6534 76.285 24.3573C79.565 21.0772 80.6957 16.1264 79.1653 11.745ZM25.9461 71.0692C24.1344 72.8808 21.7262 73.8788 19.1647 73.8788C19.1647 73.8788 19.1642 73.8788 19.164 73.8788C18.8122 73.8784 18.4622 73.8594 18.115 73.8219L22.5656 69.3713C22.8062 69.1305 22.9413 68.8045 22.9413 68.4643C22.9413 68.1244 22.8062 67.798 22.5656 67.5576L15.8936 60.8861C15.393 60.3855 14.5809 60.3855 14.08 60.8861L9.63234 65.3337C9.32856 62.4833 10.3138 59.5736 12.3822 57.505C14.1938 55.6934 16.6022 54.6958 19.1642 54.6958C21.726 54.6958 24.1345 55.6934 25.9459 57.5054C29.6854 61.2446 29.6854 67.3296 25.9461 71.0692ZM29.3359 57.2678L26.1828 54.1144L57.405 22.8928L60.5585 26.0458L29.3359 57.2678ZM74.4714 22.5439C72.6598 24.3551 70.2514 25.3527 67.6894 25.3527C65.1274 25.3527 62.7186 24.3552 60.907 22.5435C59.0958 20.7319 58.0978 18.3234 58.0978 15.7614C58.0978 13.1995 59.0958 10.791 60.9074 8.97929C62.7186 7.16782 65.1274 6.17022 67.6894 6.17022C68.0415 6.17022 68.3915 6.18929 68.7386 6.22711L64.288 10.6772C64.0475 10.9176 63.9123 11.244 63.9123 11.5839C63.9123 11.9242 64.0475 12.2501 64.288 12.4906L70.9595 19.1624C71.4604 19.6634 72.2727 19.6634 72.7733 19.1628L77.2209 14.7151C77.5247 17.5656 76.5397 20.4753 74.4714 22.5439Z" fill="#333333"/>
</g>
<defs>
<clipPath id="clip0_2135_176">
<rect width="80" height="80" fill="white" transform="translate(0.034668)"/>
</clipPath>
</defs>
</svg>
