<svg width="80" height="80" viewBox="0 0 80 80" fill="none" xmlns="http://www.w3.org/2000/svg">
<path d="M76.625 45.75L57.25 65.125C55 67.4687 51.625 69.125 48.0625 69.125H33.5C31.6562 69.125 30 69.8437 28.7812 71.0625L23.9375 75.625H1.875L23.0938 54.125L23.0625 54.0938C25.3125 51.8438 28.4687 50.4375 31.9375 50.4062H52.875C55.0938 50.4062 56.875 52.1875 56.875 54.4062C56.875 56.625 55.0938 58.4062 52.875 58.4062H36C35.2812 58.3437 34.6875 58.9375 34.6875 59.7188C34.6875 60.5 35.2812 61.0625 36.0312 61.0625H52.8125C54.5938 61.125 56.2812 60.375 57.5312 59.125C58.7812 57.875 59.4688 56.1562 59.4688 54.4062C59.5312 53.5938 59.3125 52.7188 59.0312 51.9688L70.9375 40.0625C72.5312 38.4688 75.0312 38.4688 76.5938 40C78.2188 41.5938 78.1875 44.1875 76.625 45.75ZM21.5625 25.625C21.5625 14 30.875 4.5625 42.5 4.5625C54.125 4.5625 63.5 13.9375 63.5 25.5625C63.5 37.1875 54.0938 46.5625 42.5312 46.5625C30.9688 46.5625 21.5625 37.1875 21.5625 25.625ZM45.2812 30.4688C45.2812 31.9062 44.0937 32.9688 41.6875 32.9688C39.4375 32.9688 37.3438 32.1875 36 31.5312L34.9375 35.7812C36.1562 36.4688 38.6875 37.125 41.1875 37.125V40.3125H44.0938V37.0312C48.3438 36.0938 50.3438 33.5625 50.3438 30.2812C50.3438 27 48.5 24.9688 44.5312 23.5312C41.6562 22.3438 40.3125 21.7812 40.3125 20.3125C40.3125 19.25 41.4688 18.1875 43.5938 18.1875C45.7188 18.1875 47.2812 18.8438 48.25 19.25L49.4375 15.0938C48.1562 14.4062 46.4062 13.9062 44 13.9062V10.6562H41.0938V14.125C37.2188 14.9062 35.0938 17.4062 35.0938 20.625C35.0938 24.0938 37.5 26.0312 41.3438 27.375C44.125 28.4375 45.2812 29.0312 45.2812 30.4688Z" fill="black"/>
</svg>
